# xmcd CD database file
#
# Track frame offsets:
#	182
#	21150
#	39775
#	58175
#	74837
#	94887
#	113750
#	134437
#	161425
#	178312
#	200312
#	219300
#	235600
#
# Disc length: 3414 seconds
#
# Revision: 0
# Processed by: cddbd v1.5PL3 Copyright (c) Steve Scherf et al.
# Submitted via: CDex 1.51
#
DISCID=b60d540d
DTITLE=PARAQUENOPARES 2 - PARAQUENOPARES 2
DYEAR=1900
DGENRE=Merengue
TTITLE0=Ponteme a la talala---the new york band
TTITLE1=Como Baila---angel villalona
TTITLE2=Estas corriendo virao---jose lantigua
TTITLE3=La gorra---fredy kenton
TTITLE4=A que no me adivinan---the new york band
TTITLE5=Reyna mia--- la muralla
TTITLE6=De parranda---- joseph portes
TTITLE7=Hay mucha alegria---caña brava
TTITLE8=Esta noche---oro solido
TTITLE9=A la muchacha mas linda--- jony tatis
TTITLE10=El pariguayo---musiquito
TTITLE11=Otro dia mas sin verte----sandy reyes
TTITLE12=Se acabo lo que se daba---manny manuel
EXTD=
EXTT0=
EXTT1=
EXTT2=
EXTT3=
EXTT4=
EXTT5=
EXTT6=
EXTT7=
EXTT8=
EXTT9=
EXTT10=
EXTT11=
EXTT12=
PLAYORDER=
